<?xml version="1.0" encoding="UTF-8"?>
<svg xmlns="http://www.w3.org/2000/svg" width="42.449" height="48.182" viewBox="0 0 42.449 48.182"> <g id="hands-and-gestures_1_" data-name="hands-and-gestures (1)" transform="translate(-0.36)"> <path id="Path_78409" data-name="Path 78409" d="M189.479,158.774a.752.752,0,0,0-.271-.009,1.8,1.8,0,0,1-1.589-1.782.79.79,0,1,0-1.581,0,3.381,3.381,0,0,0,2.486,3.255v.79a.79.79,0,0,0,1.581,0v-.742a3.375,3.375,0,0,0-.692-6.678,1.794,1.794,0,1,1,1.794-1.794.79.79,0,0,0,1.581,0,3.381,3.381,0,0,0-2.684-3.3v-.719a.79.79,0,0,0-1.581,0v.768a3.375,3.375,0,0,0,.889,6.63,1.793,1.793,0,0,1,.066,3.585Zm0,0" transform="translate(-167.335 -132.478)" fill="#d18418"></path> <path id="Path_78410" data-name="Path 78410" d="M104.195,117.952a11.46,11.46,0,1,0,11.46-11.46A11.46,11.46,0,0,0,104.195,117.952Zm11.46-9.88a9.88,9.88,0,1,1-9.88,9.88A9.88,9.88,0,0,1,115.655,108.073Zm0,0" transform="translate(-93.577 -95.972)" fill="#d18418"></path> <path id="Path_78411" data-name="Path 78411" d="M37.435,329.5l-6.191,2.925a5.042,5.042,0,0,0-4.3-2.653l-5.715-.157a6.036,6.036,0,0,1-2.6-.671l-.582-.3a10.258,10.258,0,0,0-9.5.01l.036-1.317a.79.79,0,0,0-.768-.812l-6.267-.172a.79.79,0,0,0-.812.768L.36,340.877a.79.79,0,0,0,.768.812l6.267.172h.022a.79.79,0,0,0,.79-.769l.018-.658,1.628-.872a2.793,2.793,0,0,1,2.084-.228l9.722,2.729.051.013a10.4,10.4,0,0,0,2.137.22,10.544,10.544,0,0,0,4.405-.961.735.735,0,0,0,.1-.054l14.1-9.118a.791.791,0,0,0,.259-1.053,3.992,3.992,0,0,0-5.272-1.606ZM1.962,340.131,2.3,327.958l4.687.129L6.649,340.26Zm25.579-.207a8.961,8.961,0,0,1-5.48.612l-9.7-2.722a4.37,4.37,0,0,0-3.258.356l-.832.446.223-8.094a8.687,8.687,0,0,1,8.826-.471l.582.3a7.634,7.634,0,0,0,3.281.847l5.716.157A3.466,3.466,0,0,1,30.2,334.12l-8.513-.235a.79.79,0,1,0-.044,1.58l9.4.259h.022a.79.79,0,0,0,.79-.769,5.016,5.016,0,0,0-.076-1.025l6.35-3,.019-.009a2.415,2.415,0,0,1,2.731.382Zm0,0" transform="translate(0 -294.115)" fill="#d18418"></path> <path id="Path_78412" data-name="Path 78412" d="M213.784,8.3V.79a.79.79,0,1,0-1.581,0V8.3a.79.79,0,1,0,1.581,0Zm0,0" transform="translate(-190.915)" fill="#d18418"></path> <path id="Path_78413" data-name="Path 78413" d="M273.784,44.347V40.79a.79.79,0,1,0-1.581,0v3.556a.79.79,0,1,0,1.581,0Zm0,0" transform="translate(-244.988 -36.048)" fill="#d18418"></path> <path id="Path_78414" data-name="Path 78414" d="M153.784,44.347V40.79a.79.79,0,0,0-1.581,0v3.556a.79.79,0,1,0,1.581,0Zm0,0" transform="translate(-136.843 -36.048)" fill="#d18418"></path> </g> </svg>