<?xml version="1.0" encoding="UTF-8"?>
<svg xmlns="http://www.w3.org/2000/svg" width="41.975" height="40" viewBox="0 0 41.975 40"> <g id="track_1_" data-name="track (1)" transform="translate(0 0)"> <path id="Path_80546" data-name="Path 80546" 
d="M39.337,2.565A8.859,8.859,0,1,0,28.305,16.312c.538.348.374.217,3.581,5.882a1.458,1.458,0,0,0,.2.271l-4.679,4.508a3.743,3.743,0,0,0-5.8.655l-6.245-3.717a3.747,3.747,0,1,0-6.5,2.562L4.774,32.648a3.749,3.749,0,1,0,1.2.591L9.92,27.273A3.749,3.749,0,0,0,15.1,25.3l6,3.572a3.748,3.748,0,1,0,7.077-.8C33.9,22.558,33.546,22.9,33.6,22.827a1.391,1.391,0,0,0,.745-.632c3.206-5.663,3.043-5.534,3.583-5.883A8.86,8.86,0,0,0,39.337,2.565ZM6.171,36.253a2.423,2.423,0,1,1-2.424-2.424A2.427,2.427,0,0,1,6.171,36.253ZM9.625,25.319a2.423,2.423,0,1,1,4.408-1.39A2.426,2.426,0,0,1,9.625,25.319Zm15.142,6.737a2.423,2.423,0,1,1,1.685-4.164,2.431,2.431,0,0,1-1.685,4.164ZM37.255,15.269a3.16,3.16,0,0,0-1.029,1.087c-3.189,5.633-2.963,5.314-3.109,5.314s.085.329-3.109-5.314A3.147,3.147,0,0,0,28.98,15.27a7.618,7.618,0,1,1,8.275,0Zm0,0" transform="translate(0 0)" fill="#d18418"></path> <path id="Path_80547" data-name="Path 80547" d="M339.9,35.4a6.165,6.165,0,1,0-.888,8.29.662.662,0,1,0-.874-1,4.84,4.84,0,1,1,1.263-1.755.662.662,0,1,0,1.222.51,6.164,6.164,0,0,0-.723-6.05Zm0,0" transform="translate(-301.824 -30.195)" fill="#d18418"></path> </g> </svg>