<?xml version="1.0" encoding="UTF-8"?>
<svg xmlns="http://www.w3.org/2000/svg" width="36.129" height="39.983" viewBox="0 0 36.129 39.983"> <g id="Group_27570" data-name="Group 27570" transform="translate(17413 5470)"> <g id="report_1_" data-name="report (1)" transform="translate(-17423.287 -5474.557)"> <path id="Path_80565" data-name="Path 80565" d="M39.431,4.557H18.54a.608.608,0,0,0-.106.01h-.011a.572.572,0,0,0-.142.05l-.034.018a.594.594,0,0,0-.124.092L10.46,12.394a.587.587,0,0,0-.093.125l-.017.031a.592.592,0,0,0-.051.144V12.7a.592.592,0,0,0-.011.11V43.952a.588.588,0,0,0,.589.589H39.431a.589.589,0,0,0,.589-.589V5.146A.589.589,0,0,0,39.431,4.557ZM17.951,6.566v5.655H12.3Zm20.891,36.8H11.464V13.4H18.54a.589.589,0,0,0,.589-.589V5.734H38.842Z" transform="translate(0 0)" fill="#d18418"></path> <path id="Path_80566" data-name="Path 80566" d="M109.141,26.2a.313.313,0,0,0,0-.043l-.512-3.48a.589.589,0,0,0-.582-.5H105.9a.589.589,0,0,0-.582.5l-.512,3.48c0,.014,0,.029,0,.043a.3.3,0,0,0,0,.042V45.123c0,.012,0,.024,0,.036a.5.5,0,0,0,.021.123c0,.011,0,.023.008.034l1.581,4.591a.589.589,0,0,0,1.113,0l1.585-4.59c0-.011,0-.023.008-.034a.534.534,0,0,0,.014-.062.526.526,0,0,0,.006-.061c0-.012,0-.023,0-.036V26.238a.29.29,0,0,0-.005-.042Zm-1.173,11.422h-1.987V26.827h1.987Zm-1.987,1.177h1.987v5.74h-1.987Zm1.555-15.448.339,2.3h-1.8l.339-2.3Zm-.562,24.561-.757-2.2h1.513Z" transform="translate(-62.73 -11.688)" fill="#d18418"></path> <path id="Path_80567" data-name="Path 80567" d="M45.151,51.872h-16.8a.589.589,0,0,0,0,1.177h16.8a.589.589,0,1,0,0-1.177Z" transform="translate(-11.599 -31.403)" fill="#d18418"></path> <path id="Path_80568" data-name="Path 80568" d="M45.151,62.8h-16.8a.589.589,0,1,0,0,1.177h16.8a.589.589,0,1,0,0-1.177Z" transform="translate(-11.599 -38.656)" fill="#d18418"></path> <path id="Path_80569" data-name="Path 80569" d="M45.151,40.941h-16.8a.589.589,0,1,0,0,1.177h16.8a.589.589,0,1,0,0-1.177Z" transform="translate(-11.599 -24.148)" fill="#d18418"></path> <path id="Path_80570" data-name="Path 80570" d="M51.726,19.814h8.938a.589.589,0,1,0,0-1.177H51.726a.589.589,0,0,0,0,1.177Z" transform="translate(-27.111 -9.345)" fill="#d18418"></path> <path id="Path_80571" data-name="Path 80571" d="M30.6,90.818H28.353a.589.589,0,0,0-.589.589v5.06a.588.588,0,0,0,.589.589H30.6a.589.589,0,0,0,.589-.589v-5.06A.589.589,0,0,0,30.6,90.818Zm-.589,5.06H28.941V92h1.068Z" transform="translate(-11.599 -57.251)" fill="#d18418"></path> <path id="Path_80572" data-name="Path 80572" d="M45.022,80.248H42.778a.589.589,0,0,0-.589.589v8.614a.589.589,0,0,0,.589.589h2.245a.588.588,0,0,0,.589-.589V80.837a.589.589,0,0,0-.589-.589Zm-.589,8.614H43.366V81.425h1.068Z" transform="translate(-21.173 -50.236)" fill="#d18418"></path> <path id="Path_80573" data-name="Path 80573" d="M59.448,84.328H57.2a.589.589,0,0,0-.589.589v7.242a.589.589,0,0,0,.589.589h2.245a.589.589,0,0,0,.589-.589V84.917A.589.589,0,0,0,59.448,84.328Zm-.589,7.242H57.791V85.505h1.068Z" transform="translate(-30.746 -52.944)" fill="#d18418"></path> <path id="Path_80574" data-name="Path 80574" d="M73.873,72.957H71.629a.589.589,0,0,0-.589.589V84.612a.588.588,0,0,0,.589.589h2.244a.588.588,0,0,0,.589-.589V73.546A.589.589,0,0,0,73.873,72.957Zm-.589,11.066H72.217V74.134h1.067Z" transform="translate(-40.321 -45.397)" fill="#d18418"></path> </g> </g> </svg>