<?xml version="1.0" encoding="UTF-8"?>
<svg xmlns="http://www.w3.org/2000/svg" width="39.99" height="39.983" viewBox="0 0 39.99 39.983"> <g id="Group_27571" data-name="Group 27571" transform="translate(17525.998 5470)"> <g id="noun_cash_1478908" transform="translate(-17536 -5480.035)"> <path id="Path_80552" data-name="Path 80552" d="M17.91,40.447a2.361,2.361,0,0,0,1.373,1.228,2.312,2.312,0,0,0,1.8-.124l2.009-1.023-.211.794a2.674,2.674,0,0,0,1.8,3.28l19.15,5.324h0a2.5,2.5,0,0,0,.668.091,2.532,2.532,0,0,0,1.262-.34,2.68,2.68,0,0,0,1.262-1.655L49.9,37.194a2.673,2.673,0,0,0-1.8-3.28l-7.529-2.093,2.3-1.2a2.434,2.434,0,0,0,1.081-3.217L41.594,22.49l.182-.091a1.419,1.419,0,0,0,.631-1.874l-1.942-4.057a1.384,1.384,0,0,0-.8-.718,1.361,1.361,0,0,0-1.056.072l-.165.083-2.162-4.516a2.361,2.361,0,0,0-1.373-1.228,2.311,2.311,0,0,0-1.8.123L11.322,21.213a2.434,2.434,0,0,0-1.081,3.217Zm28.15,7.319a1.689,1.689,0,0,1-.792,1.044,1.515,1.515,0,0,1-1.165.153h0L24.953,43.639a1.671,1.671,0,0,1-1.106-2.06l1.813-6.83,22.215,6.18ZM26.419,31.887l22.215,6.18-.5,1.895-22.215-6.18Zm22.515,5.051-.043.162L26.675,30.92l.045-.17a1.689,1.689,0,0,1,.793-1.044,1.516,1.516,0,0,1,1.165-.152l19.15,5.324A1.671,1.671,0,0,1,48.934,36.938ZM39.219,16.676a.376.376,0,0,1,.119.02.39.39,0,0,1,.225.2l1.942,4.057a.415.415,0,0,1-.178.549l-.61.306h0L32.3,26.033h0a.363.363,0,0,1-.283.019.39.39,0,0,1-.225-.2L29.85,21.793a.415.415,0,0,1,.178-.549l8.4-4.212h0l.627-.314A.346.346,0,0,1,39.219,16.676ZM11.77,22.106,33.557,11.178a1.312,1.312,0,0,1,1.025-.07,1.37,1.37,0,0,1,.795.713l2.17,4.533-7.968,4a1.419,1.419,0,0,0-.632,1.874l1.942,4.057a1.381,1.381,0,0,0,1.246.792,1.366,1.366,0,0,0,.612-.146h0L40.7,22.938l2.346,4.9a1.431,1.431,0,0,1-.634,1.9l-3.256,1.7-2.531-.7.493-.245a.5.5,0,1,0-.444-.9l-1.448.719c-.012.006-.019.017-.031.024L28.945,28.59a2.5,2.5,0,0,0-1.93.248,2.68,2.68,0,0,0-1.262,1.655l-2.319,8.738h0l-2.8,1.427a1.324,1.324,0,0,1-1.026.07,1.37,1.37,0,0,1-.795-.713L11.142,24A1.432,1.432,0,0,1,11.77,22.106Z" transform="translate(0)" fill="#d18418"></path> <path id="Path_80553" data-name="Path 80553" d="M16.113,36.126a.5.5,0,0,0,.222-.052l1.448-.719a.5.5,0,1,0-.444-.9l-1.448.719a.5.5,0,0,0,.222.947Z" transform="translate(-2.806 -12.189)" fill="#d18418"></path> <path id="Path_80554" data-name="Path 80554" d="M23.772,32.322a.5.5,0,0,0,.222-.052l1.448-.719a.5.5,0,0,0-.444-.9l-1.448.719a.5.5,0,0,0,.222.947Z" transform="translate(-6.636 -10.286)" fill="#d18418"></path> <path id="Path_80555" data-name="Path 80555" d="M31.432,28.52a.5.5,0,0,0,.222-.052l1.448-.719a.5.5,0,1,0-.444-.9l-1.448.719a.5.5,0,0,0,.222.947Z" transform="translate(-10.467 -8.385)" fill="#d18418"></path> <path id="Path_80556" data-name="Path 80556" d="M39.091,24.716a.5.5,0,0,0,.222-.052l1.448-.719a.5.5,0,1,0-.444-.9l-1.448.719a.5.5,0,0,0,.222.947Z" transform="translate(-14.297 -6.482)" fill="#d18418"></path> <path id="Path_80557" data-name="Path 80557" d="M46.75,20.911a.5.5,0,0,0,.222-.052l1.448-.719a.5.5,0,1,0-.444-.9l-1.448.719a.5.5,0,0,0,.222.947Z" transform="translate(-18.127 -4.579)" fill="#d18418"></path> <path id="Path_80558" data-name="Path 80558" d="M54.41,17.109a.5.5,0,0,0,.222-.052l1.448-.719a.5.5,0,1,0-.444-.9l-1.448.719a.5.5,0,0,0,.222.947Z" transform="translate(-21.958 -2.678)" fill="#d18418"></path> <path id="Path_80559" data-name="Path 80559" d="M30.326,65.687a.5.5,0,0,0,.222-.052L32,64.916a.5.5,0,1,0-.444-.9L30.1,64.74a.5.5,0,0,0,.222.947Z" transform="translate(-9.914 -26.972)" fill="#d18418"></path> <path id="Path_80560" data-name="Path 80560" d="M67.782,47.085A.5.5,0,0,0,68,47.033l1.448-.719a.5.5,0,1,0-.444-.9l-1.448.719a.5.5,0,0,0,.222.947Z" transform="translate(-28.646 -17.669)" fill="#d18418"></path> <path id="Path_80561" data-name="Path 80561" d="M44.892,69.833l-1.361-.378a.5.5,0,0,0-.268.963l1.361.378a.521.521,0,0,0,.134.018.5.5,0,0,0,.133-.981Z" transform="translate(-16.451 -29.707)" fill="#d18418"></path> <path id="Path_80562" data-name="Path 80562" d="M51.572,71.689l-1.36-.378a.5.5,0,0,0-.268.963l1.36.378a.521.521,0,0,0,.134.018.5.5,0,0,0,.133-.981Z" transform="translate(-19.792 -30.635)" fill="#d18418"></path> <path id="Path_80563" data-name="Path 80563" d="M68.678,71.139a3.132,3.132,0,0,0-1.317-.076,3.145,3.145,0,0,0-1.169-.613,3.07,3.07,0,0,0-2.364.287,2.911,2.911,0,0,0-1.378,1.789,3.082,3.082,0,0,0,2.2,3.714,3.184,3.184,0,0,0,.847.116,3.066,3.066,0,0,0,.469-.04,3.155,3.155,0,0,0,2.018.73,3.037,3.037,0,0,0,1.517-.4,2.91,2.91,0,0,0,1.378-1.79A3.081,3.081,0,0,0,68.678,71.139Zm-1.256,2.767a1.913,1.913,0,0,1-.909,1.177,2.05,2.05,0,0,1-.244.109,1.992,1.992,0,0,1-.367-1.721,1.917,1.917,0,0,1,.909-1.178,2.05,2.05,0,0,1,.244-.109A1.99,1.99,0,0,1,67.422,73.907Zm-4.007-1.125a1.914,1.914,0,0,1,.909-1.177,2.073,2.073,0,0,1,1.6-.191,2.11,2.11,0,0,1,.265.1,2.9,2.9,0,0,0-1.255,1.7,2.963,2.963,0,0,0,.232,2.1,2.138,2.138,0,0,1-.254-.045A2.078,2.078,0,0,1,63.416,72.782ZM69.909,74.6A1.916,1.916,0,0,1,69,75.774a2.071,2.071,0,0,1-1.6.191,2.143,2.143,0,0,1-.265-.1,2.9,2.9,0,0,0,1.254-1.7,2.963,2.963,0,0,0-.232-2.1,2.112,2.112,0,0,1,.254.045A2.078,2.078,0,0,1,69.909,74.6Z" transform="translate(-26.18 -30.155)" fill="#d18418"></path> <path id="Path_80564" data-name="Path 80564" d="M57.083,32.72l-1.892.816a.5.5,0,0,0,.4.917l1.892-.816a.5.5,0,1,0-.4-.917Z" transform="translate(-22.448 -11.324)" fill="#d18418"></path> </g> </g> </svg>