<?xml version="1.0" encoding="UTF-8"?>
<svg xmlns="http://www.w3.org/2000/svg" width="34.995" height="41.068" viewBox="0 0 34.995 41.068"> <g id="_001-list" data-name="001-list" transform="translate(-70 -39.794)"> <path id="Path_81344" data-name="Path 81344" d="M101.564,41.746H99.658V39.456a.662.662,0,0,0-1.324,0v2.289H78.661V39.456a.662.662,0,0,0-1.324,0v2.289H75.431A4.45,4.45,0,0,0,71,46.2V75.436a4.422,4.422,0,0,0,4.431,4.426h26.133A4.422,4.422,0,0,0,106,75.436V46.2A4.45,4.45,0,0,0,101.564,41.746Zm3.107,33.69a3.1,3.1,0,0,1-3.107,3.1H75.431a3.1,3.1,0,0,1-3.107-3.1V46.2a3.124,3.124,0,0,1,3.107-3.135h1.906v1.764a.662.662,0,0,0,1.324,0V43.07H98.334v1.764a.662.662,0,1,0,1.324,0V43.07h1.906a3.124,3.124,0,0,1,3.107,3.135Z" transform="translate(-1 1)" fill="#d18418"></path> <path id="Path_81345" data-name="Path 81345" d="M133.668,248.182l-3.687,3.525-1.8-1.8a.662.662,0,1,0-.936.936L129.5,253.1a.662.662,0,0,0,.926.01l4.155-3.972a.662.662,0,1,0-.915-.957Z" transform="translate(-50.748 -189.417)" fill="#d18418"></path> <path id="Path_81346" data-name="Path 81346" d="M267.493,269H256.616a.662.662,0,1,0,0,1.324h10.877a.662.662,0,1,0,0-1.324Z" transform="translate(-167.461 -208.433)" fill="#d18418"></path> <path id="Path_81347" data-name="Path 81347" d="M133.668,148.182l-3.687,3.525-1.8-1.8a.662.662,0,0,0-.936.936L129.5,153.1a.662.662,0,0,0,.926.01l4.155-3.972a.662.662,0,1,0-.915-.957Z" transform="translate(-50.748 -98.876)" fill="#d18418"></path> <path id="Path_81348" data-name="Path 81348" d="M267.493,169H256.616a.662.662,0,0,0,0,1.324h10.877a.662.662,0,1,0,0-1.324Z" transform="translate(-167.461 -117.891)" fill="#d18418"></path> <path id="Path_81349" data-name="Path 81349" d="M133.668,348.182l-3.687,3.525-1.8-1.8a.662.662,0,0,0-.936.936L129.5,353.1a.662.662,0,0,0,.926.01l4.155-3.972a.662.662,0,0,0-.915-.957Z" transform="translate(-50.748 -279.959)" fill="#d18418"></path> <path id="Path_81350" data-name="Path 81350" d="M267.493,369H256.616a.662.662,0,1,0,0,1.324h10.877a.662.662,0,1,0,0-1.324Z" transform="translate(-167.461 -298.975)" fill="#d18418"></path> </g> </svg>